REM GENRE Trance
REM DATE 2000
REM COMMENT "DCue v1.5dev"
PERFORMER "Ferry Corsten - System F"
TITLE "Trance Nation Four"
FILE "r13835.wav" WAVE
	TRACK 01 AUDIO
		TITLE "Kernkraft 400 (Original Mix)"
		PERFORMER "Zombie Nation"
		INDEX 01 00:00:00
	TRACK 02 AUDIO
		TITLE "Time To Burn (Original Mix)"
		PERFORMER "Storm"
		INDEX 01 03:26:00
	TRACK 03 AUDIO
		TITLE "Bullet In The Gun 2000 (Solar Stone Mix)"
		PERFORMER "Planet Perfecto"
		INDEX 01 06:24:00
	TRACK 04 AUDIO
		TITLE "Sandstorm (Original Mix)"
		PERFORMER "Darude"
		INDEX 01 10:31:00
	TRACK 05 AUDIO
		TITLE "Caned And Unable (Original Mix)"
		PERFORMER "Hi-Gate"
		INDEX 01 14:04:00
	TRACK 06 AUDIO
		TITLE "On The Beach (CRW Mix)"
		PERFORMER "York"
		INDEX 01 17:02:00
	TRACK 07 AUDIO
		TITLE "Two Tribes (Rob Searle Club Mix)"
		PERFORMER "Frankie Goes To Hollywood"
		INDEX 01 21:01:00
	TRACK 08 AUDIO
		TITLE "You Take My Breath Away (Lange Mix)"
		PERFORMER "SuReal"
		INDEX 01 26:41:00
	TRACK 09 AUDIO
		TITLE "Revelation (Ferry Corsten Remix)"
		PERFORMER "Electrique Boutique"
		INDEX 01 29:53:00
	TRACK 10 AUDIO
		TITLE "I Need Your Lovin' (Like The Sunshine) (Ferry Corsten Remix)"
		PERFORMER "Marc Et Claude"
		INDEX 01 33:19:00
	TRACK 11 AUDIO
		TITLE "Barber's Adagio For Strings (Ferry Corsten Remix)"
		PERFORMER "William Orbit"
		INDEX 01 37:52:00
	TRACK 12 AUDIO
		TITLE "Touch Me (Vocal Mix)"
		PERFORMER "Rising Star"
		INDEX 01 41:44:00
	TRACK 13 AUDIO
		TITLE "7 Colours (Angelic Remix)"
		PERFORMER "Lost Witness"
		INDEX 01 45:51:00
	TRACK 14 AUDIO
		TITLE "Far From Over (Oliver Lieb Remix)"
		PERFORMER "Kamaya Painters"
		INDEX 01 50:12:00
	TRACK 15 AUDIO
		TITLE "Truth (Original Mix)"
		PERFORMER "En-Motion"
		INDEX 01 54:06:00
	TRACK 16 AUDIO
		TITLE "Warrior (Club Mix)"
		PERFORMER "Warrior"
		INDEX 01 56:51:00
	TRACK 17 AUDIO
		TITLE "Bassfly (Moogwai Remix)"
		PERFORMER "Tillmann & Ries"
		INDEX 01 60:17:00
	TRACK 18 AUDIO
		TITLE "Bad Habit (Armin Van Buuren Rising Star Mix)"
		PERFORMER "A.T.F.C. Presents OnePhatDeeva Featuring Lisa Millett"
		INDEX 01 64:17:00
	TRACK 19 AUDIO
		TITLE "Isn't Life Wonderful? (Alex's Original Vocal Mix)"
		PERFORMER "Alex D'Elia vs Ebop Allstars"
		INDEX 01 68:52:00
	TRACK 20 AUDIO
		TITLE "Meet Us At Tonca (Choir Boys Remix)"
		PERFORMER "Tonca Boys"
		INDEX 01 72:35:00
